<svg width="10" height="10" viewBox="0 0 10 10" fill="none" xmlns="http://www.w3.org/2000/svg">
<path fill-rule="evenodd" clip-rule="evenodd" d="M3 0C1.34315 0 0 1.34315 0 3V7C0 8.65685 1.34315 10 3 10H7C8.65685 10 10 8.65685 10 7V3C10 2.79888 9.98021 2.60238 9.94247 2.41234L5.60596 6.74885C5.43881 6.91643 5.21938 7 4.99995 7C4.78051 7 4.56108 6.91643 4.39394 6.74885L2.25104 4.60596C1.91632 4.27124 1.91632 3.72866 2.25104 3.39394C2.58533 3.05922 3.12877 3.05922 3.46306 3.39394L4.99995 4.93039L9.0864 0.844318C8.54648 0.321653 7.8108 0 7 0H3Z" fill="#ccaeb4"/>
</svg>
